<svg width="71" height="78" viewBox="0 0 71 78" fill="none" xmlns="http://www.w3.org/2000/svg">
<g clip-path="url(#clip0_2_64)">
<path fill-rule="evenodd" clip-rule="evenodd" d="M33.4503 0.531655C34.7189 -0.175916 36.2809 -0.175916 37.5477 0.531655C43.8162 4.02865 62.6798 14.5549 68.9502 18.0519C70.2188 18.7576 70.9998 20.0651 70.9998 21.4802C70.9998 28.4742 70.9998 49.5249 70.9998 56.5189C70.9998 57.934 70.2188 59.2415 68.9502 59.949C62.6816 63.446 43.8181 73.9723 37.5477 77.4693C36.279 78.1769 34.717 78.1769 33.4503 77.4693C27.1817 73.9723 8.31819 63.446 2.04778 59.949C0.780998 59.2415 0 57.9359 0 56.5208C0 49.5268 0 28.4761 0 21.4821C0 20.0669 0.780998 18.7595 2.04965 18.0519C8.31632 14.5549 27.1836 4.02865 33.4503 0.531655Z" fill="#2C682C"/>
<path fill-rule="evenodd" clip-rule="evenodd" d="M0.567999 58.3222C0.0709998 57.6611 0 57.0333 0 56.1883C0 49.2352 0 28.3052 0 21.3502C0 19.9425 0.77913 18.6425 2.04405 17.9405C8.29016 14.4639 27.0902 3.99895 33.3363 0.520523C34.6012 -0.183334 36.3145 -0.168477 37.5795 0.53538C43.8256 4.01195 62.5621 14.3878 68.8082 17.8644C69.3127 18.1467 69.6975 18.4865 70.0413 18.9341L0.567999 58.3222Z" fill="#255425"/>
<path fill-rule="evenodd" clip-rule="evenodd" d="M35.4999 13.0005C49.9371 13.0005 61.6577 24.6503 61.6577 39.0005C61.6577 53.3506 49.9371 65.0005 35.4999 65.0005C21.0626 65.0005 9.34204 53.3506 9.34204 39.0005C9.34204 24.6503 21.0626 13.0005 35.4999 13.0005ZM35.4999 26.0005C42.7176 26.0005 48.5788 31.8245 48.5788 39.0005C48.5788 46.1746 42.7176 52.0005 35.4999 52.0005C28.2822 52.0005 22.421 46.1746 22.421 39.0005C22.421 31.8245 28.2803 26.0005 35.4999 26.0005Z" fill="white"/>
<path fill-rule="evenodd" clip-rule="evenodd" d="M70.0376 18.9526C71.0017 19.8496 70.9831 21.2016 70.9831 22.2658C70.9831 29.3136 70.9233 49.3596 70.9999 56.4075C71.0073 57.1429 70.7626 57.9173 70.3964 58.5005L34.7395 39.0005L70.0376 18.9526Z" fill="#1A461A"/>
</g>
<defs>
<clipPath id="clip0_2_64">
<rect width="71" height="78" fill="white"/>
</clipPath>
</defs>
</svg>
