<svg width="79" height="88" viewBox="0 0 79 88" fill="none" xmlns="http://www.w3.org/2000/svg">
<g clip-path="url(#clip0_2_45)" filter="url(#filter0_d_2_45)">
<path d="M74.0967 59.9999C74.6538 59.0337 75 57.945 75 56.9674V23.0324C75 22.0548 74.6543 20.9663 74.097 20.0001L39.5 40L74.0967 59.9999Z" fill="#1A461A"/>
<path d="M42.5744 79.2666L71.9257 62.2992C72.7712 61.8104 73.5397 60.9663 74.0968 59.9999L39.5 40L4.90332 60.0001C5.46042 60.9663 6.22912 61.8106 7.07439 62.2992L36.4257 79.2666C38.1165 80.2442 40.8836 80.2442 42.5744 79.2666Z" fill="#2C682C"/>
<path d="M74.097 19.9999C73.5396 19.0334 72.7709 18.1894 71.9257 17.7006L42.5743 0.733208C40.8836 -0.244403 38.1164 -0.244403 36.4257 0.733208L7.07435 17.7006C5.38334 18.678 4 21.0774 4 23.0324V56.9674C4 57.945 4.34595 59.0337 4.90328 59.9999L39.5 40L74.097 19.9999Z" fill="#255425"/>
<path d="M39.5 63.6968C26.4502 63.6968 15.8334 53.0665 15.8334 40C15.8334 26.9335 26.4502 16.3032 39.5 16.3032C47.9207 16.3032 55.7741 20.8404 59.9951 28.1442L49.7528 34.0786C47.6402 30.4228 43.7113 28.1516 39.5 28.1516C32.975 28.1516 27.6667 33.4667 27.6667 40C27.6667 46.5331 32.975 51.8484 39.5 51.8484C43.7118 51.8484 47.6407 49.5772 49.7535 45.9207L59.9958 51.8549C55.7748 59.1594 47.9212 63.6968 39.5 63.6968Z" fill="white"/>
<path d="M63.1667 38.6834H60.5369V36.0505H57.9076V38.6834H55.2778V41.3163H57.9076V43.9495H60.5369V41.3163H63.1667V38.6834Z" fill="white"/>
<path d="M73.0278 38.6834H70.398V36.0505H67.7687V38.6834H65.1389V41.3163H67.7687V43.9495H70.398V41.3163H73.0278V38.6834Z" fill="white"/>
</g>
<defs>
<filter id="filter0_d_2_45" x="0" y="0" width="79" height="88" filterUnits="userSpaceOnUse" color-interpolation-filters="sRGB">
<feFlood flood-opacity="0" result="BackgroundImageFix"/>
<feColorMatrix in="SourceAlpha" type="matrix" values="0 0 0 0 0 0 0 0 0 0 0 0 0 0 0 0 0 0 127 0" result="hardAlpha"/>
<feOffset dy="4"/>
<feGaussianBlur stdDeviation="2"/>
<feComposite in2="hardAlpha" operator="out"/>
<feColorMatrix type="matrix" values="0 0 0 0 0 0 0 0 0 0 0 0 0 0 0 0 0 0 0.25 0"/>
<feBlend mode="normal" in2="BackgroundImageFix" result="effect1_dropShadow_2_45"/>
<feBlend mode="normal" in="SourceGraphic" in2="effect1_dropShadow_2_45" result="shape"/>
</filter>
<clipPath id="clip0_2_45">
<rect width="71" height="80" fill="white" transform="translate(4)"/>
</clipPath>
</defs>
</svg>
