<svg width="82" height="83" viewBox="0 0 82 83" fill="none" xmlns="http://www.w3.org/2000/svg">
<path d="M41 0.936035C18.3488 0.936035 0.00320435 19.4697 0.00320435 42.3531C0.00320435 60.6806 11.7392 76.1593 28.0352 81.6486C30.0848 82.0098 30.8528 80.7684 30.8528 79.6822C30.8528 78.6978 30.8024 75.4367 30.8024 71.9671C20.5016 73.8826 17.8376 69.431 17.0168 67.101C16.556 65.9105 14.5568 62.2348 12.8144 61.2504C11.3792 60.4745 9.3296 58.5591 12.764 58.5058C15.992 58.4548 18.2984 61.5074 19.0664 62.7512C22.7552 69.0164 28.6496 67.2561 31.0064 66.1675C31.364 63.4762 32.4416 61.6626 33.62 60.6273C24.4976 59.592 14.9672 56.0205 14.9672 40.1782C14.9672 35.6733 16.556 31.9467 19.1696 29.0469C18.7592 28.0116 17.324 23.7661 19.58 18.0707C19.58 18.0707 23.0144 16.9845 30.8552 22.3162C34.136 21.3851 37.6208 20.9172 41.1056 20.9172C44.5904 20.9172 48.0752 21.3827 51.356 22.3162C59.1968 16.9311 62.6312 18.0707 62.6312 18.0707C64.8872 23.7661 63.452 28.0116 63.0416 29.0469C65.6552 31.9467 67.244 35.6224 67.244 40.1782C67.244 56.0715 57.6608 59.592 48.5384 60.6273C50.024 61.922 51.3056 64.4072 51.3056 68.289C51.3056 73.8292 51.2552 78.2808 51.2552 79.6798C51.2552 80.766 52.0232 82.0607 54.0728 81.6461C70.2656 76.1593 82.0016 60.6273 82.0016 42.3506C81.9968 19.4697 63.6512 0.936035 41 0.936035Z" fill="#2C682C"/>
</svg>
