<svg width="82" height="82" viewBox="0 0 82 82" fill="none" xmlns="http://www.w3.org/2000/svg">
<g clip-path="url(#clip0_7_114)">
<path d="M41.0134 0C23.8963 0 18.8901 0.0176653 17.9171 0.0983998C14.4043 0.39047 12.2185 0.94371 9.83716 2.12962C8.00199 3.0412 6.55462 4.09781 5.1262 5.57899C2.52478 8.28017 0.94815 11.6033 0.377399 15.5536C0.0999262 17.4713 0.019191 17.8623 0.00279618 27.6578C-0.00349522 30.9229 0.00279618 35.2201 0.00279618 40.9839C0.00279618 58.0918 0.0217013 63.0942 0.103706 64.0657C0.387501 67.4848 0.923541 69.6359 2.05872 71.9889C4.22817 76.4929 8.37151 79.8741 13.2528 81.1358C14.9429 81.571 16.8096 81.8108 19.2061 81.9243C20.2215 81.9684 30.5704 82 40.9257 82C51.281 82 61.6363 81.9874 62.6264 81.9369C65.4013 81.8063 67.0126 81.59 68.7942 81.1295C73.707 79.8615 77.7747 76.5308 79.9882 71.9636C81.1013 69.6674 81.6658 67.4343 81.9212 64.1937C81.9767 63.4873 82 52.2226 82 40.9732C82 29.7218 81.9748 18.478 81.9193 17.7715C81.6607 14.4786 81.0963 12.2645 79.9472 9.92408C79.0044 8.00827 77.9576 6.57755 76.4377 5.11472C73.7253 2.52329 70.408 0.946221 66.4551 0.375966C64.5398 0.09902 64.1583 0.0170147 54.3579 0H41.0134Z" fill="#2C682C"/>
<path d="M41.0166 10.5289C32.7365 10.5289 31.6974 10.5651 28.4453 10.713C25.1996 10.8615 22.9841 11.375 21.0456 12.1284C19.0403 12.9065 17.3393 13.9474 15.6447 15.6414C13.9488 17.3348 12.9071 19.0345 12.1259 21.0376C11.37 22.9754 10.8555 25.1898 10.7094 28.4319C10.564 31.6816 10.5259 32.7206 10.5259 40.9945C10.5259 49.2685 10.5627 50.3036 10.7101 53.5533C10.8594 56.7966 11.3732 59.0104 12.1265 60.9475C12.9059 62.9513 13.9475 64.651 15.6428 66.3444C17.3368 68.039 19.0378 69.0825 21.0418 69.8606C22.9816 70.614 25.1977 71.1275 28.4428 71.276C31.6949 71.4239 32.7334 71.4601 41.0128 71.4601C49.2935 71.4601 50.3295 71.4239 53.5816 71.276C56.8273 71.1275 59.0453 70.614 60.9851 69.8606C62.9897 69.0825 64.6882 68.039 66.3822 66.3444C68.0781 64.651 69.1198 62.9513 69.901 60.9482C70.6505 59.0104 71.165 56.796 71.3175 53.5539C71.4635 50.3043 71.5017 49.2684 71.5017 40.9945C71.5017 32.7205 71.4635 31.6822 71.3175 28.4325C71.165 25.1892 70.6505 22.9754 69.901 21.0383C69.1198 19.0345 68.0781 17.3348 66.3822 15.6414C64.6863 13.9468 62.9903 12.9059 60.9832 12.1284C59.0396 11.375 56.8229 10.8615 53.5771 10.713C50.325 10.5651 49.2897 10.5289 41.0071 10.5289H41.0166ZM38.2816 16.0191C39.0933 16.0178 39.9991 16.0191 41.0166 16.0191C49.157 16.0191 50.1218 16.0483 53.3364 16.1943C56.309 16.3301 57.9223 16.8264 58.997 17.2434C60.4198 17.7956 61.4342 18.4557 62.5006 19.522C63.5677 20.5883 64.2283 21.6038 64.7822 23.0255C65.1995 24.0982 65.6968 25.7103 65.8321 28.6807C65.9782 31.8923 66.01 32.857 66.01 40.9875C66.01 49.118 65.9782 50.0828 65.8321 53.2944C65.6962 56.2647 65.1995 57.8769 64.7822 58.9495C64.2296 60.3713 63.5677 61.3836 62.5006 62.4492C61.4336 63.5156 60.4204 64.1756 58.997 64.7278C57.9236 65.1467 56.309 65.6418 53.3364 65.7776C50.1224 65.9236 49.157 65.9553 41.0166 65.9553C32.8756 65.9553 31.9108 65.9236 28.6968 65.7776C25.7243 65.6405 24.1109 65.1442 23.0356 64.7272C21.6128 64.175 20.5965 63.5149 19.5294 62.4486C18.4623 61.3823 17.8018 60.3694 17.2479 58.947C16.8306 57.8743 16.3332 56.2622 16.198 53.2918C16.0519 50.0802 16.0226 49.1155 16.0226 40.9799C16.0226 32.8443 16.0519 31.8846 16.198 28.6731C16.3339 25.7027 16.8306 24.0906 17.2479 23.0167C17.8005 21.5949 18.4623 20.5794 19.5294 19.5131C20.5965 18.4468 21.6128 17.7867 23.0356 17.2333C24.1103 16.8144 25.7243 16.3193 28.6968 16.1828C31.5094 16.0559 32.5993 16.0178 38.2816 16.0114L38.2816 16.0191ZM57.291 21.0776C55.2711 21.0776 53.6324 22.7133 53.6324 24.7322C53.6324 26.7506 55.2711 28.3881 57.291 28.3881C59.3108 28.3881 60.9496 26.7506 60.9496 24.7322C60.9496 22.7139 59.3108 21.0764 57.291 21.0764L57.291 21.0776ZM41.0166 25.3491C32.37 25.3491 25.3597 32.3543 25.3597 40.9945C25.3597 49.6347 32.37 56.6367 41.0166 56.6367C49.6632 56.6367 56.6711 49.6347 56.6711 40.9945C56.6711 32.3543 49.6626 25.3491 41.016 25.3491H41.0166ZM41.0166 30.8393C46.629 30.8393 51.1794 35.3857 51.1794 40.9945C51.1794 46.6027 46.629 51.1497 41.0166 51.1497C35.4036 51.1497 30.8539 46.6027 30.8539 40.9945C30.8539 35.3857 35.4036 30.8393 41.0166 30.8393Z" fill="#08150A"/>
</g>
<defs>
<clipPath id="clip0_7_114">
<rect width="82" height="82" fill="white"/>
</clipPath>
</defs>
</svg>
