<svg width="71" height="80" viewBox="0 0 71 80" fill="none" xmlns="http://www.w3.org/2000/svg">
<path d="M35.625 79.5C34.544 79.5 33.535 79.212 32.597 78.708L23.007 73.022C21.565 72.23 22.286 71.942 22.718 71.798C24.665 71.15 25.026 71.006 27.045 69.854C27.261 69.71 27.549 69.782 27.765 69.926L35.121 74.317C35.409 74.461 35.77 74.461 35.986 74.317L64.756 57.689C65.045 57.545 65.189 57.258 65.189 56.898V23.714C65.189 23.354 65.045 23.066 64.757 22.922L35.986 6.366C35.698 6.222 35.336 6.222 35.121 6.366L6.34997 22.922C6.05997 23.066 5.91597 23.426 5.91597 23.714V56.898C5.91597 57.185 6.06097 57.545 6.34897 57.689L14.209 62.224C18.463 64.384 21.131 61.864 21.131 59.345V26.593C21.131 26.161 21.491 25.729 21.996 25.729H25.674C26.106 25.729 26.539 26.089 26.539 26.593V59.345C26.539 65.032 23.439 68.343 18.03 68.343C16.372 68.343 15.074 68.343 11.397 66.543L3.82497 62.224C2.90432 61.6902 2.14008 60.9239 1.60883 60.0018C1.07757 59.0797 0.797952 58.0342 0.797974 56.97V23.786C0.797878 22.7215 1.07757 21.6758 1.60901 20.7534C2.14046 19.8311 2.90498 19.0647 3.82597 18.531L32.596 1.903C34.4 0.895003 36.851 0.895003 38.654 1.903L67.424 18.531C68.3452 19.0646 69.1099 19.831 69.6415 20.7533C70.1731 21.6756 70.453 22.7214 70.453 23.786V56.97C70.4528 58.0344 70.1729 59.08 69.6413 60.0022C69.1096 60.9243 68.345 61.6905 67.424 62.224L38.654 78.852C37.789 79.212 36.707 79.5 35.625 79.5Z" fill="#2C682C"/>
<path d="M44.5669 56.682C31.9469 56.682 29.3519 50.923 29.3519 46.028C29.3519 45.596 29.7119 45.164 30.2169 45.164H33.9669C34.3999 45.164 34.7599 45.452 34.7599 45.884C35.3369 49.699 36.9949 51.571 44.6389 51.571C50.6959 51.571 53.2909 50.203 53.2909 46.964C53.2909 45.093 52.5709 43.724 43.1239 42.789C35.2639 41.997 30.3619 40.269 30.3619 34.007C30.3619 28.177 35.2649 24.722 43.4849 24.722C52.7149 24.722 57.2569 27.889 57.8349 34.799C57.8349 35.015 57.7619 35.231 57.6179 35.447C57.4739 35.591 57.2579 35.735 57.0409 35.735H53.2189C53.034 35.7289 52.8562 35.6621 52.7129 35.545C52.5696 35.4279 52.4688 35.267 52.4259 35.087C51.5609 31.127 49.3259 29.832 43.4129 29.832C36.7789 29.832 35.9859 32.136 35.9859 33.863C35.9859 35.951 36.9229 36.599 45.8649 37.75C54.7339 38.902 58.9149 40.558 58.9149 46.748C58.9149 53.083 53.6519 56.682 44.5669 56.682Z" fill="#2C682C"/>
</svg>
