<svg width="169" height="102" viewBox="0 0 169 102" fill="none" xmlns="http://www.w3.org/2000/svg">
<mask id="path-1-outside-1_13_221" maskUnits="userSpaceOnUse" x="0" y="0" width="169" height="102" fill="black">
<rect fill="white" width="169" height="102"/>
<path d="M43.016 97.904C37.304 97.904 32.0453 96.8613 27.24 94.776C22.5253 92.6907 18.4907 89.6987 15.136 85.8C11.7813 81.8107 9.19733 76.96 7.384 71.248C5.57067 65.4453 4.664 58.872 4.664 51.528C4.664 41.192 6.34133 32.5333 9.696 25.552C13.0507 18.5707 17.6747 13.312 23.568 9.776C29.4613 6.24 36.1253 4.47199 43.56 4.47199C51.2667 4.47199 57.976 6.28533 63.688 9.912C69.4907 13.5387 73.9333 18.8427 77.016 25.824C80.1893 32.7147 81.776 41.1467 81.776 51.12C81.776 58.6453 80.824 65.3547 78.92 71.248C77.1067 77.0507 74.4773 81.9467 71.032 85.936C67.5867 89.8347 63.5067 92.8267 58.792 94.912C54.0773 96.9067 48.8187 97.904 43.016 97.904ZM43.424 82.4C45.7813 82.4 48.048 81.856 50.224 80.768C52.4907 79.68 54.5307 77.9573 56.344 75.6C58.1573 73.152 59.608 70.024 60.696 66.216C61.784 62.3173 62.328 57.512 62.328 51.8C62.328 45 61.512 39.2427 59.88 34.528C58.248 29.7227 56.0267 26.096 53.216 23.648C50.4053 21.1093 47.096 19.84 43.288 19.84C40.296 19.84 37.3493 20.8373 34.448 22.832C31.5467 24.736 29.0987 27.9547 27.104 32.488C25.2 37.0213 24.248 43.232 24.248 51.12C24.248 56.6507 24.7467 61.4107 25.744 65.4C26.832 69.2987 28.2373 72.5173 29.96 75.056C31.7733 77.504 33.8133 79.3627 36.08 80.632C38.4373 81.8107 40.8853 82.4 43.424 82.4ZM105.853 96V34.528H92.6613V17.392C96.9226 17.392 100.413 16.6667 103.133 15.216C105.944 13.6747 107.757 10.6827 108.573 6.24H125.573V96H105.853ZM151.237 97.768C146.976 97.768 143.757 96.8613 141.581 95.048C139.496 93.2347 138.453 90.424 138.453 86.616C138.453 82.7173 139.496 79.8613 141.581 78.048C143.757 76.2347 146.976 75.328 151.237 75.328C155.589 75.328 158.808 76.2347 160.893 78.048C163.069 79.8613 164.157 82.7173 164.157 86.616C164.157 94.0507 159.85 97.768 151.237 97.768Z"/>
</mask>
<path d="M27.24 94.776L25.622 98.4341L25.6348 98.4398L25.6476 98.4454L27.24 94.776ZM15.136 85.8L12.0746 88.3744L12.0892 88.3918L12.104 88.409L15.136 85.8ZM7.384 71.248L3.56608 72.4411L3.56877 72.4497L3.5715 72.4583L7.384 71.248ZM9.696 25.552L13.3014 27.2844L9.696 25.552ZM23.568 9.776L25.626 13.206H25.626L23.568 9.776ZM63.688 9.912L61.544 13.2888L61.556 13.2965L61.568 13.304L63.688 9.912ZM77.016 25.824L73.3568 27.4397L73.3696 27.4686L73.3828 27.4972L77.016 25.824ZM78.92 71.248L75.1137 70.0183L75.1078 70.0366L75.1021 70.0549L78.92 71.248ZM71.032 85.936L74.0293 88.5848L74.0444 88.5677L74.0593 88.5505L71.032 85.936ZM58.792 94.912L60.3506 98.5959L60.3804 98.5833L60.41 98.5701L58.792 94.912ZM50.224 80.768L48.4931 77.1619L48.464 77.1759L48.4351 77.1903L50.224 80.768ZM56.344 75.6L59.5145 78.0388L59.5366 78.0101L59.5582 77.9809L56.344 75.6ZM60.696 66.216L64.5421 67.3149L64.5455 67.303L64.5488 67.2912L60.696 66.216ZM59.88 34.528L56.0925 35.8143L56.0962 35.8254L56.1001 35.8364L59.88 34.528ZM53.216 23.648L50.5349 26.6164L50.5617 26.6406L50.5889 26.6643L53.216 23.648ZM34.448 22.832L36.6426 26.1762L36.6786 26.1526L36.7141 26.1282L34.448 22.832ZM27.104 32.488L23.4427 30.877L23.4291 30.9079L23.4161 30.9391L27.104 32.488ZM25.744 65.4L21.8634 66.3701L21.8766 66.4229L21.8912 66.4752L25.744 65.4ZM29.96 75.056L26.6501 77.302L26.6965 77.3704L26.7458 77.4369L29.96 75.056ZM36.08 80.632L34.1256 84.122L34.2073 84.1678L34.2911 84.2097L36.08 80.632ZM43.016 93.904C37.8019 93.904 33.0912 92.9548 28.8324 91.1066L25.6476 98.4454C30.9994 100.768 36.8062 101.904 43.016 101.904V93.904ZM28.858 91.1179C24.6855 89.2723 21.1342 86.6382 18.168 83.191L12.104 88.409C15.8471 92.7591 20.3652 96.109 25.622 98.4341L28.858 91.1179ZM18.1974 83.2256C15.2268 79.6929 12.8748 75.3243 11.1965 70.0377L3.5715 72.4583C5.51988 78.5957 8.33591 83.9284 12.0746 88.3744L18.1974 83.2256ZM11.2019 70.0549C9.53132 64.709 8.664 58.5486 8.664 51.528H0.664C0.664 59.1954 1.61002 66.1817 3.56608 72.4411L11.2019 70.0549ZM8.664 51.528C8.664 41.6006 10.2782 33.5759 13.3014 27.2844L6.09064 23.8196C2.40447 31.4908 0.664 40.7834 0.664 51.528H8.664ZM13.3014 27.2844C16.3617 20.9156 20.4862 16.2898 25.626 13.206L21.51 6.34603C14.8632 10.3341 9.73961 16.2257 6.09064 23.8196L13.3014 27.2844ZM25.626 13.206C30.847 10.0733 36.7889 8.472 43.56 8.472V0.471994C35.4617 0.471994 28.0756 2.40667 21.51 6.34603L25.626 13.206ZM43.56 8.472C50.6156 8.472 56.5587 10.1236 61.544 13.2888L65.832 6.53515C59.3933 2.44707 51.9177 0.471994 43.56 0.471994V8.472ZM61.568 13.304C66.6142 16.4579 70.559 21.1034 73.3568 27.4397L80.6752 24.2083C77.3077 16.5819 72.3671 10.6194 65.808 6.52L61.568 13.304ZM73.3828 27.4972C76.2511 33.7255 77.776 41.5507 77.776 51.12H85.776C85.776 40.7427 84.1276 31.7038 80.6492 24.1508L73.3828 27.4972ZM77.776 51.12C77.776 58.3144 76.8652 64.597 75.1137 70.0183L82.7263 72.4777C84.7828 66.1123 85.776 58.9763 85.776 51.12H77.776ZM75.1021 70.0549C73.4273 75.4142 71.0412 79.8056 68.0047 83.3215L74.0593 88.5505C77.9135 84.0877 80.786 78.6871 82.7379 72.4411L75.1021 70.0549ZM68.0347 83.2872C64.9674 86.7581 61.3565 89.4039 57.174 91.2539L60.41 98.5701C65.6568 96.2494 70.206 92.9112 74.0293 88.5848L68.0347 83.2872ZM57.2334 91.2281C53.0735 92.9881 48.3545 93.904 43.016 93.904V101.904C49.2829 101.904 55.0812 100.825 60.3506 98.5959L57.2334 91.2281ZM43.424 86.4C46.4225 86.4 49.2998 85.7022 52.0129 84.3457L48.4351 77.1903C46.7962 78.0098 45.1401 78.4 43.424 78.4V86.4ZM51.9549 84.3741C54.8807 82.9697 57.3888 80.8023 59.5145 78.0388L53.1735 73.1612C51.6726 75.1124 50.1007 76.3903 48.4931 77.1619L51.9549 84.3741ZM59.5582 77.9809C61.7289 75.0506 63.3597 71.4532 64.5421 67.3149L56.8499 65.1171C55.8563 68.5948 54.5858 71.2534 53.1298 73.2191L59.5582 77.9809ZM64.5488 67.2912C65.7654 62.9318 66.328 57.739 66.328 51.8H58.328C58.328 57.285 57.8026 61.7029 56.8432 65.1408L64.5488 67.2912ZM66.328 51.8C66.328 44.705 65.4798 38.4769 63.6599 33.2196L56.1001 35.8364C57.5442 40.0084 58.328 45.295 58.328 51.8H66.328ZM63.6675 33.2417C61.8872 27.9996 59.3453 23.682 55.8431 20.6317L50.5889 26.6643C52.708 28.51 54.6088 31.4457 56.0925 35.8143L63.6675 33.2417ZM55.8971 20.6796C52.3469 17.4729 48.0807 15.84 43.288 15.84V23.84C46.1113 23.84 48.4637 24.7457 50.5349 26.6164L55.8971 20.6796ZM43.288 15.84C39.3517 15.84 35.6293 17.1657 32.1819 19.5358L36.7141 26.1282C39.0694 24.5089 41.2403 23.84 43.288 23.84V15.84ZM32.2534 19.4878C28.4854 21.9606 25.6218 25.9246 23.4427 30.877L30.7653 34.099C32.5755 29.9848 34.608 27.5114 36.6426 26.1762L32.2534 19.4878ZM23.4161 30.9391C21.2191 36.1699 20.248 42.9836 20.248 51.12H28.248C28.248 43.4804 29.1809 37.8728 30.7919 34.0369L23.4161 30.9391ZM20.248 51.12C20.248 56.8733 20.7649 61.9761 21.8634 66.3701L29.6246 64.4299C28.7284 60.8453 28.248 56.4281 28.248 51.12H20.248ZM21.8912 66.4752C23.0607 70.6658 24.6207 74.3113 26.6501 77.302L33.2699 72.81C31.854 70.7233 30.6033 67.9316 29.5968 64.3248L21.8912 66.4752ZM26.7458 77.4369C28.8383 80.2618 31.2873 82.5326 34.1256 84.122L38.0344 77.142C36.3393 76.1927 34.7084 74.7462 33.1742 72.6751L26.7458 77.4369ZM34.2911 84.2097C37.182 85.6552 40.2404 86.4 43.424 86.4V78.4C41.5303 78.4 39.6926 77.9662 37.8689 77.0543L34.2911 84.2097ZM105.853 96H101.853V100H105.853V96ZM105.853 34.528H109.853V30.528H105.853V34.528ZM92.6613 34.528H88.6613V38.528H92.6613V34.528ZM92.6613 17.392V13.392H88.6613V17.392H92.6613ZM103.133 15.216L105.016 18.7454L105.036 18.7344L105.057 18.7232L103.133 15.216ZM108.573 6.24V2.24H105.241L104.639 5.51739L108.573 6.24ZM125.573 6.24H129.573V2.24H125.573V6.24ZM125.573 96V100H129.573V96H125.573ZM109.853 96V34.528H101.853V96H109.853ZM105.853 30.528H92.6613V38.528H105.853V30.528ZM96.6613 34.528V17.392H88.6613V34.528H96.6613ZM92.6613 21.392C97.3411 21.392 101.537 20.6004 105.016 18.7454L101.251 11.6866C99.2891 12.7329 96.5042 13.392 92.6613 13.392V21.392ZM105.057 18.7232C109.304 16.3943 111.567 12.0817 112.507 6.9626L104.639 5.51739C103.947 9.28366 102.584 10.9551 101.21 11.7087L105.057 18.7232ZM108.573 10.24H125.573V2.24H108.573V10.24ZM121.573 6.24V96H129.573V6.24H121.573ZM125.573 92H105.853V100H125.573V92ZM141.581 95.048L138.956 98.0664L138.988 98.094L139.02 98.1209L141.581 95.048ZM141.581 78.048L139.02 74.9751L138.988 75.002L138.956 75.0296L141.581 78.048ZM160.893 78.048L158.268 81.0664L158.3 81.094L158.332 81.1209L160.893 78.048ZM151.237 93.768C147.457 93.768 145.314 92.9519 144.142 91.9751L139.02 98.1209C142.2 100.771 146.494 101.768 151.237 101.768V93.768ZM144.206 92.0296C143.288 91.2317 142.453 89.7232 142.453 86.616H134.453C134.453 91.1248 135.703 95.2376 138.956 98.0664L144.206 92.0296ZM142.453 86.616C142.453 83.3829 143.307 81.8477 144.206 81.0664L138.956 75.0296C135.684 77.875 134.453 82.0518 134.453 86.616H142.453ZM144.142 81.1209C145.314 80.1441 147.457 79.328 151.237 79.328V71.328C146.494 71.328 142.2 72.3252 139.02 74.9751L144.142 81.1209ZM151.237 79.328C155.151 79.328 157.228 80.1623 158.268 81.0664L163.518 75.0296C160.387 72.307 156.027 71.328 151.237 71.328V79.328ZM158.332 81.1209C159.288 81.9174 160.157 83.4343 160.157 86.616H168.157C168.157 82.0004 166.85 77.8053 163.454 74.9751L158.332 81.1209ZM160.157 86.616C160.157 89.5507 159.334 91.0706 158.313 91.952C157.18 92.9305 155.059 93.768 151.237 93.768V101.768C156.028 101.768 160.368 100.747 163.541 98.008C166.826 95.172 168.157 91.116 168.157 86.616H160.157Z" fill="url(#paint0_linear_13_221)" mask="url(#path-1-outside-1_13_221)"/>
<defs>
<linearGradient id="paint0_linear_13_221" x1="16.0625" y1="-30" x2="126.613" y2="95.9104" gradientUnits="userSpaceOnUse">
<stop stop-color="white"/>
<stop offset="1" stop-opacity="0.42"/>
</linearGradient>
</defs>
</svg>
