<svg width="205" height="102" viewBox="0 0 205 102" fill="none" xmlns="http://www.w3.org/2000/svg">
<mask id="path-1-outside-1_14_234" maskUnits="userSpaceOnUse" x="0" y="0" width="205" height="102" fill="black">
<rect fill="white" width="205" height="102"/>
<path d="M43.016 97.904C37.304 97.904 32.0453 96.8613 27.24 94.776C22.5253 92.6907 18.4907 89.6987 15.136 85.8C11.7813 81.8107 9.19733 76.96 7.384 71.248C5.57067 65.4453 4.664 58.872 4.664 51.528C4.664 41.192 6.34133 32.5333 9.696 25.552C13.0507 18.5707 17.6747 13.312 23.568 9.776C29.4613 6.24 36.1253 4.47199 43.56 4.47199C51.2667 4.47199 57.976 6.28533 63.688 9.912C69.4907 13.5387 73.9333 18.8427 77.016 25.824C80.1893 32.7147 81.776 41.1467 81.776 51.12C81.776 58.6453 80.824 65.3547 78.92 71.248C77.1067 77.0507 74.4773 81.9467 71.032 85.936C67.5867 89.8347 63.5067 92.8267 58.792 94.912C54.0773 96.9067 48.8187 97.904 43.016 97.904ZM43.424 82.4C45.7813 82.4 48.048 81.856 50.224 80.768C52.4907 79.68 54.5307 77.9573 56.344 75.6C58.1573 73.152 59.608 70.024 60.696 66.216C61.784 62.3173 62.328 57.512 62.328 51.8C62.328 45 61.512 39.2427 59.88 34.528C58.248 29.7227 56.0267 26.096 53.216 23.648C50.4053 21.1093 47.096 19.84 43.288 19.84C40.296 19.84 37.3493 20.8373 34.448 22.832C31.5467 24.736 29.0987 27.9547 27.104 32.488C25.2 37.0213 24.248 43.232 24.248 51.12C24.248 56.6507 24.7467 61.4107 25.744 65.4C26.832 69.2987 28.2373 72.5173 29.96 75.056C31.7733 77.504 33.8133 79.3627 36.08 80.632C38.4373 81.8107 40.8853 82.4 43.424 82.4ZM94.0277 96V76.008L128.844 53.024C130.476 52.0267 132.108 50.848 133.74 49.488C135.462 48.128 137.004 46.5867 138.364 44.864C139.814 43.1413 140.993 41.2827 141.9 39.288C142.806 37.2027 143.26 34.936 143.26 32.488C143.26 30.04 142.67 27.9093 141.492 26.096C140.404 24.2827 138.772 22.9227 136.596 22.016C134.51 21.0187 131.926 20.52 128.844 20.52C125.761 20.52 123.177 21.0187 121.092 22.016C119.097 22.9227 117.465 24.2827 116.196 26.096C115.017 27.8187 114.156 29.904 113.612 32.352C113.158 34.8 112.932 37.4747 112.932 40.376L94.1637 36.568C93.9824 29.8587 95.2517 24.1013 97.9717 19.296C100.782 14.4 104.817 10.6373 110.076 8.008C115.334 5.37866 121.726 4.06399 129.252 4.06399C135.78 4.06399 141.537 5.10666 146.524 7.19199C151.601 9.18666 155.545 12.224 158.356 16.304C161.166 20.2933 162.572 25.2347 162.572 31.128C162.572 35.6613 161.801 39.7413 160.26 43.368C158.809 46.9947 156.86 50.2587 154.412 53.16C152.054 55.9707 149.425 58.464 146.524 60.64C143.713 62.816 140.948 64.72 138.228 66.352L116.74 79.544V80.768L164.068 80.088V96H94.0277ZM187.628 97.768C183.366 97.768 180.148 96.8613 177.972 95.048C175.886 93.2347 174.844 90.424 174.844 86.616C174.844 82.7173 175.886 79.8613 177.972 78.048C180.148 76.2347 183.366 75.328 187.628 75.328C191.98 75.328 195.198 76.2347 197.284 78.048C199.46 79.8613 200.548 82.7173 200.548 86.616C200.548 94.0507 196.241 97.768 187.628 97.768Z"/>
</mask>
<path d="M27.24 94.776L25.622 98.4341L25.6348 98.4398L25.6476 98.4454L27.24 94.776ZM15.136 85.8L12.0746 88.3744L12.0892 88.3918L12.104 88.409L15.136 85.8ZM7.384 71.248L3.56608 72.4411L3.56877 72.4497L3.5715 72.4583L7.384 71.248ZM9.696 25.552L13.3014 27.2844L9.696 25.552ZM23.568 9.776L25.626 13.206H25.626L23.568 9.776ZM63.688 9.912L61.544 13.2888L61.556 13.2965L61.568 13.304L63.688 9.912ZM77.016 25.824L73.3568 27.4397L73.3696 27.4686L73.3828 27.4972L77.016 25.824ZM78.92 71.248L75.1137 70.0183L75.1078 70.0366L75.1021 70.0549L78.92 71.248ZM71.032 85.936L74.0293 88.5848L74.0444 88.5677L74.0593 88.5505L71.032 85.936ZM58.792 94.912L60.3506 98.5959L60.3804 98.5833L60.41 98.5701L58.792 94.912ZM50.224 80.768L48.4931 77.1619L48.464 77.1759L48.4351 77.1903L50.224 80.768ZM56.344 75.6L59.5145 78.0388L59.5366 78.0101L59.5582 77.9809L56.344 75.6ZM60.696 66.216L64.5421 67.3149L64.5455 67.303L64.5488 67.2912L60.696 66.216ZM59.88 34.528L56.0925 35.8143L56.0962 35.8254L56.1001 35.8364L59.88 34.528ZM53.216 23.648L50.5349 26.6164L50.5617 26.6406L50.5889 26.6643L53.216 23.648ZM34.448 22.832L36.6426 26.1762L36.6786 26.1526L36.7141 26.1282L34.448 22.832ZM27.104 32.488L23.4427 30.877L23.4291 30.9079L23.4161 30.9391L27.104 32.488ZM25.744 65.4L21.8634 66.3701L21.8766 66.4229L21.8912 66.4752L25.744 65.4ZM29.96 75.056L26.6501 77.302L26.6965 77.3704L26.7458 77.4369L29.96 75.056ZM36.08 80.632L34.1256 84.122L34.2073 84.1678L34.2911 84.2097L36.08 80.632ZM43.016 93.904C37.8019 93.904 33.0912 92.9548 28.8324 91.1066L25.6476 98.4454C30.9994 100.768 36.8062 101.904 43.016 101.904V93.904ZM28.858 91.1179C24.6855 89.2723 21.1342 86.6382 18.168 83.191L12.104 88.409C15.8471 92.7591 20.3652 96.109 25.622 98.4341L28.858 91.1179ZM18.1974 83.2256C15.2268 79.6929 12.8748 75.3243 11.1965 70.0377L3.5715 72.4583C5.51988 78.5957 8.33591 83.9284 12.0746 88.3744L18.1974 83.2256ZM11.2019 70.0549C9.53132 64.709 8.664 58.5486 8.664 51.528H0.664C0.664 59.1954 1.61002 66.1817 3.56608 72.4411L11.2019 70.0549ZM8.664 51.528C8.664 41.6006 10.2782 33.5759 13.3014 27.2844L6.09064 23.8196C2.40447 31.4908 0.664 40.7834 0.664 51.528H8.664ZM13.3014 27.2844C16.3617 20.9156 20.4862 16.2898 25.626 13.206L21.51 6.34603C14.8632 10.3341 9.73961 16.2257 6.09064 23.8196L13.3014 27.2844ZM25.626 13.206C30.847 10.0733 36.7889 8.472 43.56 8.472V0.471994C35.4617 0.471994 28.0756 2.40667 21.51 6.34603L25.626 13.206ZM43.56 8.472C50.6156 8.472 56.5587 10.1236 61.544 13.2888L65.832 6.53515C59.3933 2.44707 51.9177 0.471994 43.56 0.471994V8.472ZM61.568 13.304C66.6142 16.4579 70.559 21.1034 73.3568 27.4397L80.6752 24.2083C77.3077 16.5819 72.3671 10.6194 65.808 6.52L61.568 13.304ZM73.3828 27.4972C76.2511 33.7255 77.776 41.5507 77.776 51.12H85.776C85.776 40.7427 84.1276 31.7038 80.6492 24.1508L73.3828 27.4972ZM77.776 51.12C77.776 58.3144 76.8652 64.597 75.1137 70.0183L82.7263 72.4777C84.7828 66.1123 85.776 58.9763 85.776 51.12H77.776ZM75.1021 70.0549C73.4273 75.4142 71.0412 79.8056 68.0047 83.3215L74.0593 88.5505C77.9135 84.0877 80.786 78.6871 82.7379 72.4411L75.1021 70.0549ZM68.0347 83.2872C64.9674 86.7581 61.3565 89.4039 57.174 91.2539L60.41 98.5701C65.6568 96.2494 70.206 92.9112 74.0293 88.5848L68.0347 83.2872ZM57.2334 91.2281C53.0735 92.9881 48.3545 93.904 43.016 93.904V101.904C49.2829 101.904 55.0812 100.825 60.3506 98.5959L57.2334 91.2281ZM43.424 86.4C46.4225 86.4 49.2998 85.7022 52.0129 84.3457L48.4351 77.1903C46.7962 78.0098 45.1401 78.4 43.424 78.4V86.4ZM51.9549 84.3741C54.8807 82.9697 57.3888 80.8023 59.5145 78.0388L53.1735 73.1612C51.6726 75.1124 50.1007 76.3903 48.4931 77.1619L51.9549 84.3741ZM59.5582 77.9809C61.7289 75.0506 63.3597 71.4532 64.5421 67.3149L56.8499 65.1171C55.8563 68.5948 54.5858 71.2534 53.1298 73.2191L59.5582 77.9809ZM64.5488 67.2912C65.7654 62.9318 66.328 57.739 66.328 51.8H58.328C58.328 57.285 57.8026 61.7029 56.8432 65.1408L64.5488 67.2912ZM66.328 51.8C66.328 44.705 65.4798 38.4769 63.6599 33.2196L56.1001 35.8364C57.5442 40.0084 58.328 45.295 58.328 51.8H66.328ZM63.6675 33.2417C61.8872 27.9996 59.3453 23.682 55.8431 20.6317L50.5889 26.6643C52.708 28.51 54.6088 31.4457 56.0925 35.8143L63.6675 33.2417ZM55.8971 20.6796C52.3469 17.4729 48.0807 15.84 43.288 15.84V23.84C46.1113 23.84 48.4637 24.7457 50.5349 26.6164L55.8971 20.6796ZM43.288 15.84C39.3517 15.84 35.6293 17.1657 32.1819 19.5358L36.7141 26.1282C39.0694 24.5089 41.2403 23.84 43.288 23.84V15.84ZM32.2534 19.4878C28.4854 21.9606 25.6218 25.9246 23.4427 30.877L30.7653 34.099C32.5755 29.9848 34.608 27.5114 36.6426 26.1762L32.2534 19.4878ZM23.4161 30.9391C21.2191 36.1699 20.248 42.9836 20.248 51.12H28.248C28.248 43.4804 29.1809 37.8728 30.7919 34.0369L23.4161 30.9391ZM20.248 51.12C20.248 56.8733 20.7649 61.9761 21.8634 66.3701L29.6246 64.4299C28.7284 60.8453 28.248 56.4281 28.248 51.12H20.248ZM21.8912 66.4752C23.0607 70.6658 24.6207 74.3113 26.6501 77.302L33.2699 72.81C31.854 70.7233 30.6033 67.9316 29.5968 64.3248L21.8912 66.4752ZM26.7458 77.4369C28.8383 80.2618 31.2873 82.5326 34.1256 84.122L38.0344 77.142C36.3393 76.1927 34.7084 74.7462 33.1742 72.6751L26.7458 77.4369ZM34.2911 84.2097C37.182 85.6552 40.2404 86.4 43.424 86.4V78.4C41.5303 78.4 39.6926 77.9662 37.8689 77.0543L34.2911 84.2097ZM94.0277 96H90.0277V100H94.0277V96ZM94.0277 76.008L91.824 72.6698L90.0277 73.8556V76.008H94.0277ZM128.844 53.024L126.758 49.6109L126.698 49.6473L126.64 49.6858L128.844 53.024ZM133.74 49.488L131.261 46.3485L131.22 46.3812L131.179 46.4151L133.74 49.488ZM138.364 44.864L135.304 42.2875L135.263 42.3358L135.224 42.3854L138.364 44.864ZM141.9 39.288L145.541 40.9432L145.555 40.9132L145.568 40.8829L141.9 39.288ZM141.492 26.096L138.062 28.154L138.099 28.2157L138.138 28.276L141.492 26.096ZM136.596 22.016L134.87 25.6245L134.962 25.6688L135.057 25.7083L136.596 22.016ZM121.092 22.016L122.747 25.6575L122.782 25.6413L122.818 25.6245L121.092 22.016ZM116.196 26.096L112.919 23.8022L112.907 23.8196L112.894 23.8373L116.196 26.096ZM113.612 32.352L109.707 31.4843L109.692 31.5537L109.679 31.6236L113.612 32.352ZM112.932 40.376L112.136 44.2961L116.932 45.2691V40.376H112.932ZM94.1637 36.568L90.1651 36.6761L90.2511 39.8556L93.3683 40.4881L94.1637 36.568ZM97.9717 19.296L94.5027 17.3045L94.4966 17.315L94.4907 17.3256L97.9717 19.296ZM110.076 8.008L111.865 11.5857L111.865 11.5857L110.076 8.008ZM146.524 7.19199L144.98 10.8823L145.021 10.8991L145.061 10.915L146.524 7.19199ZM158.356 16.304L155.062 18.5732L155.074 18.5906L155.086 18.6078L158.356 16.304ZM160.26 43.368L156.578 41.8034L156.562 41.8428L156.546 41.8824L160.26 43.368ZM154.412 53.16L151.355 50.5805L151.347 50.5895L154.412 53.16ZM146.524 60.64L144.124 57.44L144.099 57.4584L144.075 57.4771L146.524 60.64ZM138.228 66.352L136.17 62.922L136.152 62.9325L136.135 62.9431L138.228 66.352ZM116.74 79.544L114.647 76.1351L112.74 77.306V79.544H116.74ZM116.74 80.768H112.74V84.8259L116.797 84.7676L116.74 80.768ZM164.068 80.088H168.068V76.0301L164.01 76.0884L164.068 80.088ZM164.068 96V100H168.068V96H164.068ZM98.0277 96V76.008H90.0277V96H98.0277ZM96.2314 79.3462L131.047 56.3622L126.64 49.6858L91.824 72.6698L96.2314 79.3462ZM130.929 56.4371C132.745 55.3277 134.535 54.0322 136.3 52.5609L131.179 46.4151C129.681 47.6638 128.206 48.7257 126.758 49.6109L130.929 56.4371ZM136.218 52.6275C138.186 51.0738 139.949 49.3106 141.503 47.3426L135.224 42.3854C134.058 43.8627 132.738 45.1822 131.261 46.3485L136.218 52.6275ZM141.423 47.4405C143.102 45.4466 144.479 43.2793 145.541 40.9432L138.258 37.6328C137.507 39.286 136.526 40.8361 135.304 42.2875L141.423 47.4405ZM145.568 40.8829C146.71 38.2567 147.26 35.4422 147.26 32.488H139.26C139.26 34.4298 138.903 36.1486 138.231 37.6931L145.568 40.8829ZM147.26 32.488C147.26 29.3713 146.5 26.4611 144.845 23.916L138.138 28.276C138.841 29.3576 139.26 30.7087 139.26 32.488H147.26ZM144.922 24.038C143.344 21.4082 141.004 19.5195 138.134 18.3237L135.057 25.7083C136.539 26.3258 137.464 27.1571 138.062 28.154L144.922 24.038ZM138.322 18.4075C135.549 17.0814 132.334 16.52 128.844 16.52V24.52C131.519 24.52 133.472 24.9559 134.87 25.6245L138.322 18.4075ZM128.844 16.52C125.354 16.52 122.138 17.0814 119.366 18.4075L122.818 25.6245C124.216 24.9559 126.168 24.52 128.844 24.52V16.52ZM119.436 18.3745C116.783 19.5804 114.594 21.409 112.919 23.8022L119.473 28.3898C120.336 27.1564 121.411 26.2649 122.747 25.6575L119.436 18.3745ZM112.894 23.8373C111.376 26.0564 110.34 28.6363 109.707 31.4843L117.516 33.2197C117.972 31.1717 118.658 29.5809 119.497 28.3547L112.894 23.8373ZM109.679 31.6236C109.174 34.3474 108.932 37.2693 108.932 40.376H116.932C116.932 37.68 117.143 35.2526 117.545 33.0804L109.679 31.6236ZM113.727 36.4559L94.9591 32.6479L93.3683 40.4881L112.136 44.2961L113.727 36.4559ZM98.1622 36.4599C97.9963 30.3208 99.1611 25.315 101.453 21.2664L94.4907 17.3256C91.3423 22.8877 89.9684 29.3965 90.1651 36.6761L98.1622 36.4599ZM101.441 21.2875C103.843 17.1033 107.279 13.8785 111.865 11.5857L108.287 4.43029C102.355 7.39616 97.722 11.6967 94.5027 17.3045L101.441 21.2875ZM111.865 11.5857C116.434 9.30073 122.179 8.06399 129.252 8.06399V0.0639915C121.274 0.0639915 114.234 1.45659 108.287 4.43029L111.865 11.5857ZM129.252 8.06399C135.357 8.06399 140.573 9.03915 144.98 10.8823L148.067 3.50167C142.501 1.17417 136.202 0.0639915 129.252 0.0639915V8.06399ZM145.061 10.915C149.475 12.649 152.748 15.2153 155.062 18.5732L161.65 14.0348C158.342 9.2327 153.727 5.72432 147.986 3.46899L145.061 10.915ZM155.086 18.6078C157.33 21.793 158.572 25.885 158.572 31.128H166.572C166.572 24.5843 165.003 18.7937 161.626 14.0002L155.086 18.6078ZM158.572 31.128C158.572 35.2039 157.88 38.7404 156.578 41.8034L163.941 44.9326C165.722 40.7422 166.572 36.1187 166.572 31.128H158.572ZM156.546 41.8824C155.249 45.1233 153.519 48.0158 151.355 50.5805L157.469 55.7395C160.201 52.5015 162.369 48.866 163.974 44.8536L156.546 41.8824ZM151.347 50.5895C149.184 53.1683 146.777 55.4498 144.124 57.44L148.924 63.84C152.073 61.4782 154.925 58.773 157.476 55.7304L151.347 50.5895ZM144.075 57.4771C141.375 59.5678 138.739 61.3803 136.17 62.922L140.286 69.782C143.156 68.0597 146.052 66.0642 148.972 63.8029L144.075 57.4771ZM136.135 62.9431L114.647 76.1351L118.832 82.9529L140.32 69.7608L136.135 62.9431ZM112.74 79.544V80.768H120.74V79.544H112.74ZM116.797 84.7676L164.125 84.0876L164.01 76.0884L116.682 76.7684L116.797 84.7676ZM160.068 80.088V96H168.068V80.088H160.068ZM164.068 92H94.0277V100H164.068V92ZM177.972 95.048L175.347 98.0664L175.379 98.094L175.411 98.1209L177.972 95.048ZM177.972 78.048L175.411 74.9751L175.379 75.002L175.347 75.0296L177.972 78.048ZM197.284 78.048L194.659 81.0664L194.691 81.094L194.723 81.1209L197.284 78.048ZM187.628 93.768C183.848 93.768 181.704 92.9519 180.532 91.9751L175.411 98.1209C178.591 100.771 182.885 101.768 187.628 101.768V93.768ZM180.596 92.0296C179.679 91.2317 178.844 89.7232 178.844 86.616H170.844C170.844 91.1248 172.094 95.2376 175.347 98.0664L180.596 92.0296ZM178.844 86.616C178.844 83.3829 179.698 81.8477 180.596 81.0664L175.347 75.0296C172.075 77.875 170.844 82.0518 170.844 86.616H178.844ZM180.532 81.1209C181.704 80.1441 183.848 79.328 187.628 79.328V71.328C182.885 71.328 178.591 72.3252 175.411 74.9751L180.532 81.1209ZM187.628 79.328C191.541 79.328 193.619 80.1623 194.659 81.0664L199.908 75.0296C196.777 72.307 192.418 71.328 187.628 71.328V79.328ZM194.723 81.1209C195.679 81.9174 196.548 83.4343 196.548 86.616H204.548C204.548 82.0004 203.241 77.8053 199.844 74.9751L194.723 81.1209ZM196.548 86.616C196.548 89.5507 195.725 91.0706 194.704 91.952C193.57 92.9305 191.45 93.768 187.628 93.768V101.768C192.418 101.768 196.758 100.747 199.931 98.008C203.217 95.172 204.548 91.116 204.548 86.616H196.548Z" fill="url(#paint0_linear_14_234)" mask="url(#path-1-outside-1_14_234)"/>
<defs>
<linearGradient id="paint0_linear_14_234" x1="19.8875" y1="-30" x2="125.829" y2="116.213" gradientUnits="userSpaceOnUse">
<stop stop-color="white"/>
<stop offset="1" stop-opacity="0.42"/>
</linearGradient>
</defs>
</svg>
