<svg width="65" height="66" viewBox="0 0 65 66" fill="none" xmlns="http://www.w3.org/2000/svg">
<path d="M31.763 0.000532445C29.112 0.0128683 26.5803 0.23929 24.3527 0.634034C17.7905 1.79505 16.599 4.22514 16.599 8.70666V14.6254H32.1064V16.5983H16.599H10.7793C6.27239 16.5983 2.32605 19.3111 1.09168 24.4718C-0.332145 30.3872 -0.395299 34.0785 1.09168 40.2551C2.194 44.8527 4.82648 48.1286 9.33335 48.1286H14.6651V41.0334C14.6651 35.9075 19.0937 31.386 24.3527 31.386H39.842C44.1537 31.386 47.5957 27.8308 47.5957 23.4944V8.70666C47.5957 4.49798 44.0503 1.33645 39.842 0.634034C37.1781 0.189946 34.414 -0.0118036 31.763 0.000532445ZM23.3767 4.76085C24.9785 4.76085 26.2866 6.09223 26.2866 7.72926C26.2866 9.36048 24.9785 10.6796 23.3767 10.6796C21.7692 10.6796 20.4668 9.36048 20.4668 7.72926C20.4668 6.09223 21.7692 4.76085 23.3767 4.76085Z" fill="#1A461A"/>
<path d="M49.5295 16.5983V23.4944C49.5295 28.8409 45.0033 33.3408 39.842 33.3408H24.3527C20.1099 33.3408 16.599 36.9773 16.599 41.2324V56.0202C16.599 60.2289 20.2534 62.7044 24.3527 63.9118C29.2614 65.3573 33.9687 65.6185 39.842 63.9118C43.746 62.7798 47.5956 60.5017 47.5956 56.0202V50.1015H32.1064V48.1286H47.5956H55.3493C59.8562 48.1286 61.5356 44.9804 63.103 40.255C64.722 35.3904 64.6531 30.7122 63.103 24.4718C61.9892 19.9787 59.8619 16.5983 55.3493 16.5983H49.5295ZM40.8179 54.0473C42.4255 54.0473 43.7278 55.3664 43.7278 56.9976C43.7278 58.6346 42.4255 59.966 40.8179 59.966C39.2161 59.966 37.9081 58.6346 37.9081 56.9976C37.9081 55.3664 39.2161 54.0473 40.8179 54.0473Z" fill="#418C41"/>
</svg>
