<svg width="82" height="57" viewBox="0 0 82 57" fill="none" xmlns="http://www.w3.org/2000/svg">
<path d="M40.957 56.5517C40.957 56.5517 66.6448 56.5517 73.0165 54.8552C76.6041 53.8938 79.3022 51.1228 80.2492 47.7014C82 41.4241 82 28.2193 82 28.2193C82 28.2193 82 15.0993 80.2492 8.87862C79.3022 5.37241 76.6041 2.65792 73.0165 1.72482C66.6448 -6.74948e-06 40.957 0 40.957 0C40.957 0 15.3266 -6.74948e-06 8.98355 1.72482C5.45328 2.65792 2.69794 5.37241 1.69339 8.87862C4.82106e-07 15.0993 0 28.2193 0 28.2193C0 28.2193 4.82106e-07 41.4241 1.69339 47.7014C2.69794 51.1228 5.45328 53.8938 8.98355 54.8552C15.3266 56.5517 40.957 56.5517 40.957 56.5517Z" fill="#2C682C"/>
<path d="M53.7241 28.2759L32.5172 16.2587V40.2931L53.7241 28.2759Z" fill="#08150A"/>
</svg>
